<svg width="159" height="147" viewBox="0 0 159 147" fill="none" xmlns="http://www.w3.org/2000/svg">
<rect width="159" height="147" fill="black"/>
<path d="M109.225 80.7879C115.758 77.7176 121.596 72.069 122.734 65.8751C124.762 54.8479 118.076 46.1306 109.191 41.8205C98.5827 36.666 105.651 40.3295 64.726 27.3002C45.0617 21.0325 44.0339 16.0727 44.659 12.5677C39.0935 15.8213 36.4625 34.9561 45.506 41.2112C54.8001 47.6415 73.8607 49.8471 97.5431 57.8976C118.365 64.9786 114.678 75.8832 109.225 80.7879Z" fill="url(#paint0_linear_24_444)"/>
<path d="M113.331 84.2676C111.554 83.087 109.595 82.089 107.494 81.307C77.7896 72.8882 75.1454 72.8987 65.2943 69.9668C38.4549 61.9766 42.0018 56.6338 41.4168 54.405C36.1352 59.4961 35.1991 76.205 44.233 81.6892C55.1905 88.3412 74.9101 91.3379 99.7086 98.8721C107.775 101.321 112.437 103.993 115.864 107.049C119.669 110.444 120.522 115.166 117.281 118.927C114.446 122.217 107.362 121.296 99.5393 119.798C85.6558 117.138 68.1365 112.176 63.2306 110.541C41.1845 103.206 39.9381 97.2084 39.3532 94.9796C34.0716 100.071 33.1357 116.774 42.1693 122.264C49.3298 126.614 56.2048 129.252 71.3077 130.938C82.3715 132.167 102.493 133.816 112.887 124.062C113.897 123.113 121.872 117.686 123.971 107.741C125.921 98.4997 121.247 89.5444 113.32 84.2774L113.331 84.2676Z" fill="url(#paint1_linear_24_444)"/>
<path d="M90.0095 76.4658C98.9063 78.8662 107.494 81.3017 107.494 81.3017C107.642 81.3567 107.784 81.4166 107.927 81.4713C108.366 81.2508 108.805 81.0252 109.224 80.7828C114.673 75.8779 118.359 64.9733 97.5376 57.8975C96.1023 57.4072 94.6811 56.9438 93.2798 56.497C99.0793 59.1953 106.781 72.6115 90.0043 76.4655L90.0095 76.4658Z" fill="url(#paint2_linear_24_444)"/>
<path d="M92.7912 117.697C92.3598 118.024 91.9142 118.316 91.4535 118.591C94.0317 119.251 96.5815 119.842 99.03 120.321C107.103 121.906 114.405 122.876 117.337 119.355C120.688 115.33 119.817 110.288 115.899 106.668C109.411 100.677 100.73 98.3241 91.9174 95.7473C98.285 99.1515 103.226 109.841 92.7912 117.697Z" fill="url(#paint3_linear_24_444)"/>
<defs>
<linearGradient id="paint0_linear_24_444" x1="112.969" y1="56.9309" x2="31.8351" y2="-5.55988" gradientUnits="userSpaceOnUse">
<stop offset="0.07" stop-color="white"/>
<stop offset="0.68" stop-color="#D9D9D9"/>
<stop offset="0.96" stop-color="#F5F5F5"/>
</linearGradient>
<linearGradient id="paint1_linear_24_444" x1="36.1352" y1="91.8063" x2="124.818" y2="96.3197" gradientUnits="userSpaceOnUse">
<stop offset="0.04" stop-color="white"/>
<stop offset="0.32" stop-color="#F5F5F5"/>
<stop offset="0.583333" stop-color="white"/>
<stop offset="0.93" stop-color="#F5F5F5"/>
<stop offset="1" stop-color="#D8E1E3"/>
</linearGradient>
<linearGradient id="paint2_linear_24_444" x1="103.484" y1="66.1956" x2="87.1085" y2="84.874" gradientUnits="userSpaceOnUse">
<stop offset="0.04" stop-color="white"/>
<stop offset="0.567993" stop-color="#D8E1E3"/>
<stop offset="0.97797" stop-color="#D8E1E3"/>
</linearGradient>
<linearGradient id="paint3_linear_24_444" x1="113.52" y1="111.468" x2="81.6427" y2="145.069" gradientUnits="userSpaceOnUse">
<stop stop-color="white"/>
<stop offset="0.880208" stop-color="#D8E1E3"/>
<stop offset="1" stop-color="white"/>
</linearGradient>
</defs>
</svg>
